  <svg
  xmlns="http://www.w3.org/2000/svg"
  xmlSpace="preserve"
  className="w-20 h-20"
  style={{
    shapeRendering: "geometricPrecision",
    textRendering: "geometricPrecision",
    imageRendering: "optimizeQuality",
    fillRule: "evenodd",
    clipRule: "evenodd",
  }}
  viewBox="0 0 6.827 6.827"
>
  <defs>
    <style>
      {`.fil6{fill:#dfdfdf}.fil0,.fil3{fill:#b5b5b6;fill-rule:nonzero}.fil0{fill:#d8d8d8}`}
    </style>
  </defs>
  <g id="Layer_x0020_1">
    <path
      className="fil0"
      d="M3.718 2.4s.022.23.151.38l.1.356-.65.35-.56-.296.19-.422s.09-.138.09-.393c0 0-.053-.074-.083-.177 0 0-.103-.143-.098-.482l.01-.339.226-.26.373-.04.374.231c.14.42.17.512-.123 1.091z"
    />
    <path
      d="M2.858 1.716S2.662.873 3.42.838c0 0 .634-.048.524.867 0 0-.082-.46-.555-.46 0 0-.503-.05-.532.471z"
      style={{ fill: "#232323", fillRule: "nonzero" }}
    />
    <path
      className="fil0"
      d="M4.235 2.939s.314-.029.547.257c0 0 .39.19.285.735.073-.13.126-.217.256-.518 0 0 .01-.096.104-.113.024-.028.038-.074.113-.082.034-.04.074-.076.156-.058.062-.01.138.06.18.133.08.097.154.232.037.361-.002.066-.045.1-.106.11-.01.062-.05.106-.116.105-.026.062-.052.106-.141.1-.114.249-.492 1.926-1.21.062l-.482-.502.377-.59zM2.584 2.96s-.306-.05-.539.236c0 0-.391.19-.285.735-.073-.13-.126-.217-.256-.518 0 0-.01-.096-.104-.113-.024-.028-.039-.074-.113-.082-.035-.04-.074-.076-.157-.058-.061-.01-.137.06-.179.133-.08.097-.154.232-.037.361.001.066.044.1.105.11.01.062.05.106.116.105.027.062.053.106.142.1.114.249.492 1.926 1.21.062l.482-.502-.385-.57z"
    />
    <path
      d="m2.584 2.96.37-.189s.517.402.888-.024l.393.192s-.342.653.105 1.092c0 0-.131 1 .1 1.809 0 0-1.232.331-2.08 0 0 0 .265-1.147.127-1.81 0 0 .328-.7.097-1.07z"
      style={{ fill: "#6a6a6a", fillRule: "nonzero" }}
    />
    <path
      className="fil3"
      d="M1.76 3.931c.084.096.234.278.266.48.022-.218-.222-.572-.28-.594-.006.044.017.144.014.114zM5.068 3.931c-.085.096-.235.278-.267.48-.022-.218.223-.572.28-.594.006.044-.017.144-.013.114z"
    />
    <path
      d="M2.955 2.771s.516.402.887-.024h.001a.804.804 0 0 1-.124-.332.397.397 0 0 1-.338.172.395.395 0 0 1-.342-.18c-.007.235-.09.36-.09.36l-.004.01.01-.006z"
      style={{ fill: "#c9c9c9" }}
    />
    <path
      d="M3.413 3.03c.205 0 .382-.076.473-.188a.315.315 0 0 0 .037-.056l-.08-.038-.001-.001c-.37.426-.887.024-.887.024l-.01.005-.053.028c.075.136.368.226.521.226z"
      style={{ fill: "#767676" }}
    />
    <path
      className="fil6"
      d="m3.376 3.688.098.279.32-.085-.26.255.1.278-.258-.12-.259.256.1-.33-.26-.12.32-.083zM2.864 4.315l.033.095.11-.03-.089.088.034.095-.088-.041-.088.087.034-.112-.089-.041.11-.029zM3.963 3.838l.033.095.11-.03-.089.088.034.095-.088-.041-.088.087.034-.112-.089-.041.11-.029z"
    />
    <path style={{ fill: "none" }} d="M0 0h6.827v6.827H0z" />
  </g>
</svg>